<svg xmlns="http://www.w3.org/2000/svg" height="800" width="1200" id="svg240" xml:space="preserve" y="0" x="0" version="1.1" viewBox="-42.81168 -22.6 371.03456 135.6"><style id="style219" type="text/css">.st1{fill:#222}</style><g transform="translate(-257.2 -96.4)" id="Artwork"><g id="g237"><g id="g235"><circle id="circle221" r="10.6" cy="113.7" cx="495.4" fill="#ff4500"/><path id="path223" d="M344 158.9c5.2 0 8.2-3.9 8-7.7-.1-2-.3-3.3-.5-4.3-3.2-13.8-14.4-24-27.7-24-15.8 0-28.6 14.3-28.6 31.9 0 17.6 12.8 31.9 28.6 31.9 9.9 0 17-3.6 22.1-9.3 2.5-2.8 2-7.1-1-9.2-2.5-1.7-5.6-1.1-7.9.8-2.2 1.9-6.4 5.7-13.2 5.7-8 0-14.8-6.9-16.3-16H344zM323.7 135c7.2 0 13.4 5.6 15.7 13.3H308c2.3-7.8 8.5-13.3 15.7-13.3z" class="st1"/><path id="path225" d="M295.8 129.2c0-3-2.2-5.4-5-5.9-8.7-1.3-16.9 1.9-21.6 7.8v-.8c0-3.7-3-6-6-6-3.3 0-6 2.7-6 6v49c0 3.2 2.4 6 5.6 6.2 3.5.2 6.4-2.5 6.4-6v-25.3c0-11.2 8.4-20.4 20-19.1h1.2c3-.2 5.4-2.8 5.4-5.9z" class="st1"/><path id="path227" d="M501.4 135.6c0-3.3-2.7-6-6-6s-6 2.7-6 6v43.9c0 3.3 2.7 6 6 6s6-2.7 6-6v-43.9z" class="st1"/><path id="path229" d="M412.2 102.4c0-3.3-2.7-6-6-6s-6 2.7-6 6v26.7c-4.1-4.1-9.2-6.1-15.3-6.1-15.8 0-28.6 14.3-28.6 31.9 0 17.6 12.8 31.9 28.6 31.9 6.1 0 11.3-2.1 15.4-6.2.5 2.8 3 4.9 5.9 4.9 3.3 0 6-2.7 6-6v-77.1zM385 174.9c-9.2 0-16.6-8.9-16.6-20 0-11 7.4-20 16.6-20 9.2 0 16.6 8.9 16.6 20s-7.5 20-16.6 20z" class="st1"/><path id="path231" d="M474.8 102.4c0-3.3-2.7-6-6-6s-6 2.7-6 6v26.7c-4.1-4.1-9.2-6.1-15.3-6.1-15.8 0-28.6 14.3-28.6 31.9 0 17.6 12.8 31.9 28.6 31.9 6.1 0 11.3-2.1 15.4-6.2.5 2.8 3 4.9 5.9 4.9 3.3 0 6-2.7 6-6v-77.1zm-27.3 72.5c-9.2 0-16.6-8.9-16.6-20 0-11 7.4-20 16.6-20 9.2 0 16.6 8.9 16.6 20s-7.4 20-16.6 20z" class="st1"/><path id="path233" d="M531.8 179.6V135h5.3c2.8 0 5.3-2.1 5.5-5 .2-3.1-2.3-5.7-5.3-5.7h-5.5v-8.4c0-3.2-2.4-6-5.6-6.2-3.5-.2-6.4 2.5-6.4 6v8.7h-5c-2.8 0-5.3 2.1-5.5 5-.2 3.1 2.3 5.7 5.3 5.7h5.1v44.6c0 3.3 2.7 6 6 6 3.5-.2 6.1-2.8 6.1-6.1z" class="st1"/></g></g></g></svg>